<?xml version="1.0" encoding="UTF-8" standalone="no"?>
<!DOCTYPE svg PUBLIC "-//W3C//DTD SVG 1.0//EN" "http://www.w3.org/TR/2001/PR-SVG-20010719/DTD/svg10.dtd">
<svg width="23cm" height="19cm" viewBox="519 246 449 364" xmlns="http://www.w3.org/2000/svg" xmlns:xlink="http://www.w3.org/1999/xlink">
  <defs/>
  <g id="Arrière-plan">
    <g>
      <ellipse style="fill: #5ccd5c; fill-opacity: 1; stroke-opacity: 1; stroke-width: 2; stroke: #000000" cx="662.2" cy="285.5" rx="22" ry="22"/>
      <line style="fill: none; stroke-opacity: 1; stroke-width: 2; stroke: #000000" x1="685.17" y1="285.5" x2="749.459" y2="285.5"/>
      <polygon style="fill: #000000; fill-opacity: 1; stroke-opacity: 1; stroke-width: 2; stroke: #000000" fill-rule="evenodd" points="756.959,285.5 746.959,290.5 749.459,285.5 746.959,280.5 "/>
      <line style="fill: none; stroke-opacity: 1; stroke-width: 2; stroke: #000000" x1="565.205" y1="285.5" x2="629.494" y2="285.5"/>
      <polygon style="fill: #000000; fill-opacity: 1; stroke-opacity: 1; stroke-width: 2; stroke: #000000" fill-rule="evenodd" points="636.994,285.5 626.994,290.5 629.494,285.5 626.994,280.5 "/>
      <rect style="fill: none; stroke-opacity: 1; stroke-width: 2; stroke: #000000" x="886.95" y="274.5" width="80" height="20" rx="0" ry="0"/>
      <text font-size="14.7772" style="fill: #000000; fill-opacity: 1; stroke: none;text-anchor:middle;font-family:sans-serif;font-style:normal;font-weight:700" x="926.95" y="289.625">
        <tspan x="926.95" y="289.625">branch1</tspan>
      </text>
      <line style="fill: none; stroke-opacity: 1; stroke-width: 2; stroke: #000000" x1="885.948" y1="284.783" x2="814.924" y2="285.274"/>
      <polygon style="fill: #000000; fill-opacity: 1; stroke-opacity: 1; stroke-width: 2; stroke: #000000" fill-rule="evenodd" points="807.424,285.326 817.389,280.257 814.924,285.274 817.459,290.257 "/>
      <text font-size="16.9333" style="fill: #000000; fill-opacity: 1; stroke: none;text-anchor:middle;font-family:sans-serif;font-style:normal;font-weight:700" x="662.2" y="291.375">
        <tspan x="662.2" y="291.375">1</tspan>
      </text>
      <ellipse style="fill: #ff9797; fill-opacity: 1; stroke-opacity: 1; stroke-width: 2; stroke: #000000" cx="782.2" cy="285.5" rx="22" ry="22"/>
      <text font-size="16.9333" style="fill: #000000; fill-opacity: 1; stroke: none;text-anchor:middle;font-family:sans-serif;font-style:normal;font-weight:700" x="782.2" y="291.375">
        <tspan x="782.2" y="291.375">2</tspan>
      </text>
      <ellipse style="fill: #74bbff; fill-opacity: 1; stroke-opacity: 1; stroke-width: 2; stroke: #000000" cx="542.2" cy="285.5" rx="22" ry="22"/>
      <text font-size="16.9333" style="fill: #000000; fill-opacity: 1; stroke: none;text-anchor:middle;font-family:sans-serif;font-style:normal;font-weight:700" x="542.2" y="291.375">
        <tspan x="542.2" y="291.375">A</tspan>
      </text>
    </g>
    <text font-size="16.9333" style="fill: #000000; fill-opacity: 1; stroke: none;text-anchor:start;font-family:sans-serif;font-style:normal;font-weight:700" x="586" y="262">
      <tspan x="586" y="262">pick</tspan>
    </text>
    <text font-size="16.9333" style="fill: #000000; fill-opacity: 1; stroke: none;text-anchor:start;font-family:sans-serif;font-style:normal;font-weight:700" x="580" y="423">
      <tspan x="580" y="423">squash</tspan>
    </text>
    <text font-size="16.9333" style="fill: #000000; fill-opacity: 1; stroke: none;text-anchor:start;font-family:sans-serif;font-style:normal;font-weight:700" x="592" y="506">
      <tspan x="592" y="506">drop</tspan>
    </text>
    <g>
      <ellipse style="fill: #5ccd5c; fill-opacity: 1; stroke-opacity: 1; stroke-width: 2; stroke: #000000" cx="792.2" cy="587" rx="22" ry="22"/>
      <line style="fill: none; stroke-opacity: 1; stroke-width: 2; stroke: #000000" x1="565.205" y1="587" x2="641.46" y2="587"/>
      <polygon style="fill: #000000; fill-opacity: 1; stroke-opacity: 1; stroke-width: 2; stroke: #000000" fill-rule="evenodd" points="648.96,587 638.96,592 641.46,587 638.96,582 "/>
      <rect style="fill: none; stroke-opacity: 1; stroke-width: 2; stroke: #000000" x="886.95" y="576" width="80" height="20" rx="0" ry="0"/>
      <text font-size="14.7772" style="fill: #000000; fill-opacity: 1; stroke: none;text-anchor:middle;font-family:sans-serif;font-style:normal;font-weight:700" x="926.95" y="591.125">
        <tspan x="926.95" y="591.125">branch1</tspan>
      </text>
      <line style="fill: none; stroke-opacity: 1; stroke-width: 2; stroke: #000000" x1="885.948" y1="586.283" x2="824.926" y2="586.75"/>
      <polygon style="fill: #000000; fill-opacity: 1; stroke-opacity: 1; stroke-width: 2; stroke: #000000" fill-rule="evenodd" points="817.427,586.807 827.388,581.731 824.926,586.75 827.465,591.731 "/>
      <text font-size="16.9333" style="fill: #000000; fill-opacity: 1; stroke: none;text-anchor:middle;font-family:sans-serif;font-style:normal;font-weight:700" x="792.2" y="592.875">
        <tspan x="792.2" y="592.875">1</tspan>
      </text>
      <ellipse style="fill: #ff9797; fill-opacity: 1; stroke-opacity: 1; stroke-width: 2; stroke: #000000" cx="674.2" cy="587" rx="22" ry="22"/>
      <text font-size="16.9333" style="fill: #000000; fill-opacity: 1; stroke: none;text-anchor:middle;font-family:sans-serif;font-style:normal;font-weight:700" x="674.2" y="592.875">
        <tspan x="674.2" y="592.875">2</tspan>
      </text>
      <ellipse style="fill: #74bbff; fill-opacity: 1; stroke-opacity: 1; stroke-width: 2; stroke: #000000" cx="542.2" cy="587" rx="22" ry="22"/>
      <text font-size="16.9333" style="fill: #000000; fill-opacity: 1; stroke: none;text-anchor:middle;font-family:sans-serif;font-style:normal;font-weight:700" x="542.2" y="592.875">
        <tspan x="542.2" y="592.875">A</tspan>
      </text>
      <line style="fill: none; stroke-opacity: 1; stroke-width: 2; stroke: #000000" x1="697.192" y1="587" x2="760.464" y2="587"/>
      <polygon style="fill: #000000; fill-opacity: 1; stroke-opacity: 1; stroke-width: 2; stroke: #000000" fill-rule="evenodd" points="767.964,587 757.964,592 760.464,587 757.964,582 "/>
    </g>
    <g>
      <ellipse style="fill: #ffcc6f; fill-opacity: 1; stroke-opacity: 1; stroke-width: 2; stroke: #000000" cx="662.2" cy="360.875" rx="22" ry="22"/>
      <line style="fill: none; stroke-opacity: 1; stroke-width: 2; stroke: #000000" x1="685.17" y1="360.875" x2="749.459" y2="360.875"/>
      <polygon style="fill: #000000; fill-opacity: 1; stroke-opacity: 1; stroke-width: 2; stroke: #000000" fill-rule="evenodd" points="756.959,360.875 746.959,365.875 749.459,360.875 746.959,355.875 "/>
      <line style="fill: none; stroke-opacity: 1; stroke-width: 2; stroke: #000000" x1="565.205" y1="360.875" x2="629.494" y2="360.875"/>
      <polygon style="fill: #000000; fill-opacity: 1; stroke-opacity: 1; stroke-width: 2; stroke: #000000" fill-rule="evenodd" points="636.994,360.875 626.994,365.875 629.494,360.875 626.994,355.875 "/>
      <rect style="fill: none; stroke-opacity: 1; stroke-width: 2; stroke: #000000" x="886.95" y="349.875" width="80" height="20" rx="0" ry="0"/>
      <text font-size="14.7772" style="fill: #000000; fill-opacity: 1; stroke: none;text-anchor:middle;font-family:sans-serif;font-style:normal;font-weight:700" x="926.95" y="365">
        <tspan x="926.95" y="365">branch1</tspan>
      </text>
      <line style="fill: none; stroke-opacity: 1; stroke-width: 2; stroke: #000000" x1="885.948" y1="360.158" x2="814.924" y2="360.649"/>
      <polygon style="fill: #000000; fill-opacity: 1; stroke-opacity: 1; stroke-width: 2; stroke: #000000" fill-rule="evenodd" points="807.424,360.701 817.389,355.632 814.924,360.649 817.459,365.632 "/>
      <text font-size="16.9333" style="fill: #000000; fill-opacity: 1; stroke: none;text-anchor:middle;font-family:sans-serif;font-style:normal;font-weight:700" x="662.2" y="366.75">
        <tspan x="662.2" y="366.75">3</tspan>
      </text>
      <ellipse style="fill: #ff9797; fill-opacity: 1; stroke-opacity: 1; stroke-width: 2; stroke: #000000" cx="782.2" cy="360.875" rx="22" ry="22"/>
      <text font-size="16.9333" style="fill: #000000; fill-opacity: 1; stroke: none;text-anchor:middle;font-family:sans-serif;font-style:normal;font-weight:700" x="782.2" y="366.75">
        <tspan x="782.2" y="366.75">2</tspan>
      </text>
      <ellipse style="fill: #74bbff; fill-opacity: 1; stroke-opacity: 1; stroke-width: 2; stroke: #000000" cx="542.2" cy="360.875" rx="22" ry="22"/>
      <text font-size="16.9333" style="fill: #000000; fill-opacity: 1; stroke: none;text-anchor:middle;font-family:sans-serif;font-style:normal;font-weight:700" x="542.2" y="366.75">
        <tspan x="542.2" y="366.75">A</tspan>
      </text>
    </g>
    <ellipse style="fill: #add8e6; fill-opacity: 1; stroke-opacity: 1; stroke-width: 2; stroke: #000000" cx="718.2" cy="436.25" rx="22" ry="22"/>
    <g>
      <line style="fill: none; stroke-opacity: 1; stroke-width: 2; stroke: #000000" x1="565.205" y1="436.25" x2="685.604" y2="436.25"/>
      <polygon style="fill: #000000; fill-opacity: 1; stroke-opacity: 1; stroke-width: 2; stroke: #000000" fill-rule="evenodd" points="693.104,436.25 683.104,441.25 685.604,436.25 683.104,431.25 "/>
    </g>
    <rect style="fill: none; stroke-opacity: 1; stroke-width: 2; stroke: #000000" x="886.95" y="425.25" width="80" height="20" rx="0" ry="0"/>
    <text font-size="14.7772" style="fill: #000000; fill-opacity: 1; stroke: none;text-anchor:middle;font-family:sans-serif;font-style:normal;font-weight:700" x="926.95" y="440.375">
      <tspan x="926.95" y="440.375">branch1</tspan>
    </text>
    <g>
      <line style="fill: none; stroke-opacity: 1; stroke-width: 2; stroke: #000000" x1="885.948" y1="435.533" x2="750.911" y2="436.11"/>
      <polygon style="fill: #000000; fill-opacity: 1; stroke-opacity: 1; stroke-width: 2; stroke: #000000" fill-rule="evenodd" points="743.411,436.142 753.39,431.1 750.911,436.11 753.432,441.1 "/>
    </g>
    <text font-size="16.9333" style="fill: #000000; fill-opacity: 1; stroke: none;text-anchor:middle;font-family:sans-serif;font-style:normal;font-weight:700" x="718.2" y="442.125">
      <tspan x="718.2" y="442.125">1+2</tspan>
    </text>
    <g>
      <ellipse style="fill: #74bbff; fill-opacity: 1; stroke-opacity: 1; stroke-width: 2; stroke: #000000" cx="542.2" cy="436.25" rx="22" ry="22"/>
      <text font-size="16.9333" style="fill: #000000; fill-opacity: 1; stroke: none;text-anchor:middle;font-family:sans-serif;font-style:normal;font-weight:700" x="542.2" y="442.125">
        <tspan x="542.2" y="442.125">A</tspan>
      </text>
    </g>
    <g>
      <line style="fill: none; stroke-opacity: 1; stroke-width: 2; stroke: #000000" x1="564.2" y1="511.625" x2="687.536" y2="511.625"/>
      <polygon style="fill: #000000; fill-opacity: 1; stroke-opacity: 1; stroke-width: 2; stroke: #000000" fill-rule="evenodd" points="695.036,511.625 685.036,516.625 687.536,511.625 685.036,506.625 "/>
      <rect style="fill: none; stroke-opacity: 1; stroke-width: 2; stroke: #000000" x="886.95" y="500.625" width="80" height="20" rx="0" ry="0"/>
      <text font-size="14.7772" style="fill: #000000; fill-opacity: 1; stroke: none;text-anchor:middle;font-family:sans-serif;font-style:normal;font-weight:700" x="926.95" y="515.75">
        <tspan x="926.95" y="515.75">branch1</tspan>
      </text>
      <line style="fill: none; stroke-opacity: 1; stroke-width: 2; stroke: #000000" x1="885.948" y1="510.908" x2="752.931" y2="511.483"/>
      <polygon style="fill: #000000; fill-opacity: 1; stroke-opacity: 1; stroke-width: 2; stroke: #000000" fill-rule="evenodd" points="745.431,511.516 755.409,506.473 752.931,511.483 755.452,516.473 "/>
      <ellipse style="fill: #ff9797; fill-opacity: 1; stroke-opacity: 1; stroke-width: 2; stroke: #000000" cx="720.2" cy="511.625" rx="22" ry="22"/>
      <text font-size="16.9333" style="fill: #000000; fill-opacity: 1; stroke: none;text-anchor:middle;font-family:sans-serif;font-style:normal;font-weight:700" x="720.2" y="517.5">
        <tspan x="720.2" y="517.5">2</tspan>
      </text>
      <ellipse style="fill: #74bbff; fill-opacity: 1; stroke-opacity: 1; stroke-width: 2; stroke: #000000" cx="542.2" cy="511.625" rx="22" ry="22"/>
      <text font-size="16.9333" style="fill: #000000; fill-opacity: 1; stroke: none;text-anchor:middle;font-family:sans-serif;font-style:normal;font-weight:700" x="542.2" y="517.5">
        <tspan x="542.2" y="517.5">A</tspan>
      </text>
    </g>
    <text font-size="16.9333" style="fill: #000000; fill-opacity: 1; stroke: none;text-anchor:start;font-family:sans-serif;font-style:normal;font-weight:700" x="578" y="347">
      <tspan x="578" y="347">edit</tspan>
    </text>
  </g>
</svg>
